<svg width="769.94mm" height="515.84mm" version="1.1" viewBox="0 0 769.94 515.84" xmlns="http://www.w3.org/2000/svg">
 <path d="m0.9637 513.53c0.53-1.2716 49.237-117.24 108.24-257.71l107.27-255.4 75.948-0.108 0.4386 1.0222c1.8968 4.4212 215.84 513.84 215.92 514.13 0.1011 0.3584-2.4917 0.3741-53.084 0.3226l-53.191-0.054-16.831-43.23c-9.2572-23.776-16.93-43.447-17.051-43.713l-0.2197-0.4839h-182.44l0.1305-0.4839c0.072-0.2661 7.9579-20.615 17.524-45.219l17.394-44.735 56.053-0.054c30.829-0.03 56.053-0.1041 56.053-0.165 0-0.061-17.383-44.75-38.628-99.309-21.246-54.559-38.922-99.961-39.28-100.89-0.4329-1.126-0.7074-1.5952-0.8177-1.3979-0.091 0.1632-6.3126 16.121-13.825 35.461s-39.255 101.02-70.54 181.52c-31.284 80.496-58.319 150.06-60.076 154.58l-3.1957 8.2242h-106.76l0.9637-2.312zm551.85-1.3927c-0.059-0.1507-8.0769-19.244-17.818-42.428-9.7416-23.185-17.687-42.184-17.656-42.219 0.031-0.036 1.4456-0.2036 3.1446-0.3727 19.616-1.9526 38.758-7.4923 57.532-16.65 29.086-14.187 53.325-35.714 66.973-59.478 2.2176-3.8614 6.2296-12.127 6.2296-12.834 0-0.098-38.599-0.178-85.776-0.178h-85.776l-18.037-42.961c-9.9206-23.628-18.26-43.469-18.532-44.09l-0.4941-1.1291h327.33v3.8175c0 4.5135-0.3051 11.729-0.7552 18.012-2.0902 29.179-8.5407 57.66-18.924 83.556-6.7291 16.782-15.874 34.066-25.661 48.499-9.4753 13.973-18.326 24.659-30.564 36.902-12.866 12.871-23.63 21.72-38.405 31.574-16.627 11.089-34.016 19.949-53.235 27.126-14.098 5.2638-30.339 9.685-45.39 12.356-1.7074 0.303-3.3243 0.6007-3.5931 0.6616-0.2868 0.065-0.5326 0-0.5952-0.1634zm85.093-355.2c-3.4109-6.0136-9.0985-13.34-15.286-19.691-23.155-23.765-58.578-41.604-93.785-47.23-23.469-3.7501-48.97-1.3724-72.722 6.7804-9.3805 3.22-19.836 8.0191-28.571 13.115-10.852 6.3305-22.531 15.159-30.802 23.285-1.1495 1.1293-2.1407 2.0025-2.2028 1.9404-0.062-0.062-8.4395-19.935-18.617-44.163-10.177-24.227-18.551-44.126-18.608-44.218-0.057-0.092 1.3247-1.1279 3.0707-2.3012 32.659-21.947 70.1-36.288 109.31-41.87 18.942-2.6964 39.243-3.3005 57.854-1.7216 15.229 1.292 32.797 4.5348 48.284 8.9123 38.595 10.91 75.605 30.352 106.04 55.705 10.731 8.94 21.52 19.527 30.137 29.572 16.586 19.336 29.159 40.518 36.607 61.672l0.6626 1.8819h-110.43l-0.9441-1.6645z" fill="#1a5b80" stroke-width=".21507"/>
</svg>
